<?xml version="1.0" encoding="utf-8"?>
<!-- Generator: Adobe Illustrator 28.0.0, SVG Export Plug-In . SVG Version: 6.00 Build 0)  -->
<svg version="1.1" id="Layer_1" xmlns="http://www.w3.org/2000/svg" xmlns:xlink="http://www.w3.org/1999/xlink" x="0px" y="0px"
	 viewBox="0 0 1937 486" enable-background="new 0 0 1937 486" xml:space="preserve">
<g>
	<path fill="#273F8B" d="M794.2,419.6c-2.7-3.5-6.3-6.8-10.6-9.9c8.6-1.4,15-5,19.4-10.8c4.2-5.8,6.4-13,6.4-21.9
		c0-6.9-1.4-13-4.3-18.4c-2.8-5.4-6.5-9.2-11.3-11.3c-4.7-2.1-12.3-3.2-22.8-3.2h-41.5v117.6h19.7v-49.2h4c4.5,0,7.8,0.5,9.9,1.3
		c2,0.9,4,2.6,5.8,5c1.9,2.3,5.4,8.1,10.4,17.3l14.3,25.6h23.5l-11.9-23C800.6,429.6,796.9,423.3,794.2,419.6z M763.8,393.9h-14.5
		v-29.9h15.4c7.9,0,12.8,0.2,14.3,0.4c3.2,0.6,5.7,2.2,7.5,4.5c1.7,2.6,2.6,5.8,2.6,9.6c0,3.5-0.6,6.6-2,8.9c-1.3,2.3-3.2,4-5.5,5
		C779.2,393.4,773.2,393.9,763.8,393.9z"/>
	<rect x="1224.3" y="170.4" fill="#273F8B" width="19.6" height="117.4"/>
	<polygon fill="#273F8B" points="847.6,409.9 896.5,409.9 896.5,390.1 847.6,390.1 847.6,364.1 900.2,364.1 900.2,344.2 
		827.9,344.2 827.9,461.8 902.1,461.8 902.1,441.9 847.6,441.9 	"/>
	<polygon fill="#273F8B" points="857.4,287.9 876.7,195.5 876.7,287.9 895,287.9 895,170.4 865.5,170.4 847.9,250.6 830.3,170.4 
		800.8,170.4 800.8,287.9 819.1,287.9 819.1,195.5 838.4,287.9 	"/>
	<rect x="691" y="344.2" fill="#273F8B" width="19.6" height="117.6"/>
	<path fill="#273F8B" d="M651,263.7c-3.8,4-8.4,6-13.5,6c-7.1,0-12.8-3.2-17.4-9.4c-4.4-6.3-6.6-16.9-6.6-31.7
		c0-14.1,2.2-24.1,6.8-30.5c4.4-6.3,10.2-9.3,17.6-9.3c5.3,0,9.6,1.7,13.4,5.3c3.6,3.5,6,8.2,7.1,14.3l19.5-5.5
		c-2.2-9.4-5.6-16.7-10-21.7c-7.5-8.6-17.1-12.8-29.1-12.8c-13.6,0-24.7,5.4-33,16.3c-8.4,10.8-12.6,25.9-12.6,45.6
		c0,18.4,4.2,33,12.5,43.6c8.4,10.7,19,16,32,16c10.4,0,19.1-3.1,25.8-9.3c6.8-6.3,11.7-15.8,14.7-28.6l-19.2-7.3
		C657.4,253.3,654.8,259.7,651,263.7z"/>
	<path fill="#273F8B" d="M428.7,141.7H121.2v322h307.5h85.1v-322V22.3h-85.1V141.7z M428.7,450.6H272.9
		c-184.7,0-184.7-295.8,0-295.8h155.9v76.5H293.8c-102.6,0-102.6,142.8,0,142.8h134.9V450.6z M428.8,326.1h-135
		c-19.3,0-28.9-7.8-28.9-23.4c0-15.6,9.6-23.4,28.9-23.4h135V326.1z"/>
	<path fill="#273F8B" d="M738.6,289.9c14.3,0,25.8-5.3,34.3-16c8.6-10.7,12.7-25.6,12.7-44.6c0-19.2-4.2-34.1-12.8-44.8
		c-8.7-10.7-20.2-16.1-34.6-16.1c-7.9,0-15,1.6-21,4.8c-4.6,2.2-8.8,5.8-12.6,10.6c-3.9,4.7-6.9,10.1-9.1,16.1
		c-3,8.1-4.4,18.1-4.4,30.1c0,18.7,4.2,33.4,12.7,44C712.5,284.6,724,289.9,738.6,289.9z M718.8,198.8c5-6.8,11.5-10,19.6-10
		c8.1,0,14.7,3.2,19.7,9.9c4.8,6.7,7.3,16.7,7.3,30.1c0,13.6-2.5,23.8-7.5,30.7c-5,6.8-11.5,10.2-19.4,10.2
		c-7.8,0-14.3-3.4-19.4-10.4c-5.1-6.8-7.6-16.9-7.6-30.2C711.4,215.6,713.9,205.5,718.8,198.8z"/>
	<path fill="#273F8B" d="M973.1,437.4c-3.8,4-8.4,6-13.5,6c-7.1,0-12.9-3.2-17.4-9.4c-4.4-6.3-6.6-16.9-6.6-31.7
		c0-14.1,2.2-24.1,6.8-30.5c4.4-6.3,10.2-9.3,17.6-9.3c5.3,0,9.6,1.7,13.4,5.3c3.6,3.5,6,8.2,7.1,14.3l19.4-5.5
		c-2.1-9.4-5.5-16.7-9.8-21.7c-7.6-8.6-17.2-12.8-29.1-12.8c-13.7,0-24.7,5.4-33.1,16.3c-8.4,10.8-12.6,25.9-12.6,45.6
		c0,18.4,4.2,33,12.5,43.6c8.4,10.7,19,16.1,32,16.1c10.4,0,19.1-3.2,25.9-9.4c6.7-6.3,11.6-15.8,14.5-28.6l-19.1-7.3
		C979.5,427.1,976.9,433.4,973.1,437.4z"/>
	<path fill="#273F8B" d="M662.5,357.2c-4.1-5.2-9-8.8-14.8-10.8c-4.3-1.5-10.4-2.2-18.6-2.2h-36v117.6h37.1c7.3,0,13.1-0.9,17.4-2.6
		c5.8-2.2,10.4-5.3,13.8-9.3c4.5-5.3,8-12.2,10.4-20.8c2.1-7,3-15.3,3-25.1c0-10.9-1.1-20.2-3.2-27.7
		C669.6,368.7,666.4,362.5,662.5,357.2z M652.6,424.5c-1.4,5.3-3.2,9.1-5.2,11.4c-2.2,2.4-4.8,3.9-8,5c-2.4,0.7-6.3,1.1-12,1.1
		h-14.6v-77.8h8.8c8.1,0,13.5,0.4,16.2,1.2c3.7,0.9,6.8,2.8,9.2,5.5c2.3,2.7,4.2,6.5,5.5,11.4c1.2,4.8,1.9,11.8,1.9,21
		C654.5,412.2,653.8,419.3,652.6,424.5z"/>
	<polygon fill="#273F8B" points="1735.8,249 1695.9,170.4 1676.8,170.4 1676.8,287.9 1695,287.9 1695,211.3 1734.4,287.9 
		1754.2,287.9 1754.2,170.4 1735.8,170.4 	"/>
	<path fill="#273F8B" d="M1389.1,170.4l-37.9,117.4h20.9l8.1-26.6h39l8.5,26.6h21.5l-39-117.4H1389.1z M1386.2,241.4l13.2-43.6
		l13.4,43.6H1386.2z"/>
	<polygon fill="#273F8B" points="1442.4,190.3 1471.4,190.3 1471.4,287.9 1491,287.9 1491,190.3 1519.9,190.3 1519.9,170.4 
		1442.4,170.4 	"/>
	<rect x="1372.7" y="439.2" fill="#273F8B" width="18.7" height="22.6"/>
	<path fill="#273F8B" d="M1845.4,235c-2.6-5-6.2-8.9-10.8-12c-4.6-2.8-11.7-5.7-21.3-8.4c-9.5-2.7-15.6-5.4-18-7.8c-2-2-3-4.4-3-7.2
		c0-3.1,1.1-5.4,3.1-7.3c3.2-2.8,7.7-4.2,13.4-4.2c5.5,0,9.8,1.3,12.6,4c2.7,2.6,4.5,7.1,5.3,13.1l19.7-1.1
		c-0.4-10.8-3.6-19.4-9.7-25.8c-6.2-6.6-15.4-9.8-27.7-9.8c-7.6,0-13.9,1.4-19.2,4.1c-5.3,2.7-9.4,6.6-12.2,11.9
		c-2.9,5.2-4.2,10.9-4.2,16.8c0,9.3,3,17.1,9,23.6c4.2,4.6,11.6,8.4,22.2,11.7c8.2,2.4,13.5,4.1,15.8,5c3.5,1.5,5.8,3.2,7.1,5
		c1.4,2,1.9,4.3,1.9,7.2c0,4.3-1.5,8.1-4.8,11.2c-3.2,3.3-8,5-14.3,5c-6,0-10.7-1.9-14.3-5.5c-3.5-3.5-5.9-9.3-7.1-17.1l-19.2,2.2
		c1.3,13.2,5.2,23.2,11.8,30c6.6,6.9,16.1,10.2,28.4,10.2c8.5,0,15.6-1.4,21.2-4.2c5.7-2.7,10.1-7.2,13.2-13
		c3.2-5.8,4.7-12.1,4.7-18.9C1849.2,246.3,1848,240.1,1845.4,235z"/>
	<path fill="#273F8B" d="M1328.8,437.4c-3.8,4-8.3,6-13.5,6c-7.1,0-12.9-3.2-17.4-9.4c-4.4-6.3-6.6-16.9-6.6-31.7
		c0-14.1,2.2-24.1,6.8-30.5c4.4-6.3,10.3-9.3,17.6-9.3c5.3,0,9.6,1.7,13.4,5.3c3.6,3.5,6,8.2,7.1,14.3l19.5-5.5
		c-2.2-9.4-5.5-16.7-9.9-21.7c-7.6-8.6-17.2-12.8-29.1-12.8c-13.7,0-24.7,5.4-33.1,16.3c-8.4,10.8-12.6,25.9-12.6,45.6
		c0,18.4,4.2,33,12.5,43.6c8.4,10.7,19,16.1,32,16.1c10.5,0,19.1-3.2,25.9-9.4c6.8-6.3,11.7-15.8,14.6-28.6l-19.2-7.3
		C1335.2,427.1,1332.6,433.4,1328.8,437.4z"/>
	<rect x="1532.2" y="170.4" fill="#273F8B" width="19.6" height="117.4"/>
	<path fill="#273F8B" d="M1613.7,168.4c-7.9,0-14.9,1.6-21,4.8c-4.5,2.2-8.8,5.8-12.5,10.6c-4,4.7-7,10.1-9.2,16.1
		c-3,8.1-4.4,18.1-4.4,30.1c0,18.7,4.2,33.4,12.8,44c8.6,10.7,20.1,16,34.6,16c14.3,0,25.8-5.3,34.3-16
		c8.6-10.7,12.8-25.6,12.8-44.6c0-19.2-4.3-34.1-12.9-44.8C1639.6,173.8,1628.1,168.4,1613.7,168.4z M1633.3,259.4
		c-5,6.8-11.5,10.2-19.4,10.2c-7.8,0-14.3-3.4-19.4-10.4c-5.1-6.8-7.6-16.9-7.6-30.2c0-13.5,2.4-23.6,7.4-30.3
		c5-6.8,11.5-10,19.7-10c8.1,0,14.6,3.2,19.6,9.9c4.8,6.7,7.3,16.7,7.3,30.1C1640.9,242.4,1638.4,252.6,1633.3,259.4z"/>
	<path fill="#273F8B" d="M1086,235.5c0,9.3-0.2,16-0.8,19.9c-0.6,4-2.3,7.3-5.2,10.2c-2.8,2.7-7,4.1-12.6,4.1c-5.5,0-9.9-1.4-13-4.3
		c-3.2-3-5.3-6.8-6-11.7c-0.5-3-0.8-9.5-0.8-19.7v-63.6h-19.7v62.6c0,13.2,0.7,23.2,1.9,29.9c0.9,4.6,2.7,8.8,5.6,12.9
		c2.7,4.2,6.6,7.6,11.4,10.2c4.8,2.6,11.8,3.9,21.2,3.9c7.7,0,13.9-1.3,18.7-3.5c4.8-2.4,8.6-5.5,11.5-9.5c2.8-4,4.8-9,5.8-14.8
		c1.1-5.8,1.6-15.8,1.6-29.9v-61.7H1086V235.5z"/>
	<polygon fill="#273F8B" points="961.5,250.6 943.8,170.4 914.3,170.4 914.3,287.9 932.6,287.9 932.6,195.5 951.9,287.9 
		970.8,287.9 990.3,195.5 990.3,287.9 1008.6,287.9 1008.6,170.4 979,170.4 	"/>
	<polygon fill="#273F8B" points="1010,364.1 1039,364.1 1039,461.8 1058.7,461.8 1058.7,364.1 1087.6,364.1 1087.6,344.2 
		1010,344.2 	"/>
	<polygon fill="#273F8B" points="1145,211.3 1184.3,287.9 1204.1,287.9 1204.1,170.4 1185.8,170.4 1185.8,249 1145.9,170.4 
		1126.7,170.4 1126.7,287.9 1145,287.9 	"/>
	<polygon fill="#273F8B" points="1235.3,422.7 1195.4,344.2 1176.3,344.2 1176.3,461.8 1194.5,461.8 1194.5,385.1 1233.9,461.8 
		1253.7,461.8 1253.7,344.2 1235.3,344.2 	"/>
	<rect x="1137.6" y="344.2" fill="#273F8B" width="19.7" height="117.6"/>
	<path fill="#273F8B" d="M1303.7,289.9c10.4,0,19.1-3.1,25.8-9.3c6.8-6.3,11.7-15.8,14.7-28.6l-19.2-7.3c-1.7,8.6-4.3,14.9-8.1,18.9
		c-3.8,4-8.4,6-13.5,6c-7.1,0-12.9-3.2-17.4-9.4c-4.4-6.3-6.6-16.9-6.6-31.7c0-14.1,2.2-24.1,6.8-30.5c4.4-6.3,10.2-9.3,17.6-9.3
		c5.3,0,9.6,1.7,13.4,5.3c3.6,3.5,6,8.2,7.1,14.3l19.5-5.5c-2.2-9.4-5.6-16.7-10-21.7c-7.5-8.6-17.1-12.8-29.1-12.8
		c-13.6,0-24.7,5.4-33,16.3c-8.4,10.8-12.6,25.9-12.6,45.6c0,18.4,4.2,33,12.5,43.6C1280.1,284.6,1290.7,289.9,1303.7,289.9z"/>
</g>
</svg>
